M48
; DRILL file {KiCad (5.1.2)-1} date 15/08/2019 23:29:15
; FORMAT={-:-/ absolute / inch / decimal}
; #@! TF.CreationDate,2019-08-15T23:29:15+02:00
; #@! TF.GenerationSoftware,Kicad,Pcbnew,(5.1.2)-1
FMAT,2
INCH
T1C0.0118
T2C0.0197
T3C0.0236
T4C0.0276
T5C0.0394
T6C0.0400
T7C0.0472
T8C0.1378
T9C0.0256
%
G90
G05
T1
X2.1732Y-3.4055
X2.1732Y-3.1988
X2.1732Y-3.2677
X2.1732Y-3.4744
X2.1732Y-4.0453
X2.1732Y-4.1142
X2.1732Y-4.252
X2.1732Y-3.3366
X2.1732Y-4.3209
X2.1732Y-4.1831
X2.185Y-3.6654
X2.185Y-3.9756
X2.185Y-4.015
X2.2285Y-3.7248
X2.2417Y-3.7512
X2.242Y-3.7925
X2.2465Y-3.8197
X2.2532Y-3.7118
X2.3107Y-3.6079
X2.3134Y-3.9169
X2.3307Y-3.0118
X2.3307Y-3.1654
X2.3402Y-3.6094
X2.3402Y-3.6335
X2.3409Y-3.9043
X2.3413Y-3.9283
X2.3465Y-4.376
X2.368Y-3.223
X2.378Y-3.0118
X2.385Y-3.5512
X2.3898Y-4.4528
X2.3898Y-4.4921
X2.4252Y-4.5433
X2.4291Y-3.0118
X2.4331Y-4.0551
X2.4331Y-4.0866
X2.4331Y-4.1181
X2.4331Y-4.1496
X2.4331Y-4.1811
X2.4567Y-4.5433
X2.4577Y-3.7886
X2.4758Y-3.1657
X2.4803Y-3.0118
X2.4843Y-4.25
X2.4843Y-4.2776
X2.5079Y-4.4055
X2.5079Y-4.4331
X2.5079Y-4.6063
X2.5079Y-4.6339
X2.5141Y-3.7232
X2.5295Y-3.0118
X2.5378Y-3.5839
X2.5394Y-3.9783
X2.5433Y-4.2441
X2.5433Y-4.2677
X2.5433Y-4.4449
X2.5433Y-4.4685
X2.5551Y-3.6713
X2.5551Y-3.75
X2.5551Y-3.8287
X2.5591Y-3.561
X2.5787Y-3.0118
X2.5906Y-3.561
X2.6293Y-3.0112
X2.6299Y-3.1654
X2.6299Y-3.561
X2.6457Y-4.2441
X2.6457Y-4.2677
X2.6457Y-4.4449
X2.6457Y-4.4685
X2.6614Y-3.561
X2.6614Y-3.9547
X2.6713Y-4.4193
X2.6713Y-4.6201
X2.6791Y-3.0118
X2.6969Y-4.2657
X2.6969Y-4.4665
X2.7047Y-3.9921
X2.7283Y-3.0118
X2.7303Y-4.0374
X2.7382Y-4.3642
X2.7382Y-4.3917
X2.7382Y-4.565
X2.7382Y-4.5925
X2.7392Y-3.9911
X2.748Y-4.1555
X2.7618Y-4.0374
X2.7776Y-4.1791
X2.7795Y-3.0118
X2.7795Y-3.1654
X2.8012Y-4.1437
X2.813Y-3.4665
X2.8287Y-3.0118
X2.8287Y-4.1437
X2.8563Y-4.1437
X2.8583Y-3.9547
X2.878Y-3.561
X2.878Y-3.0118
X2.8839Y-4.1437
X2.8976Y-4.3898
X2.8976Y-4.4646
X2.8976Y-4.6142
X2.9055Y-3.6043
X2.9193Y-4.1496
X2.9213Y-3.9557
X2.9252Y-4.2402
X2.9291Y-3.0118
X2.9291Y-3.1654
X2.9331Y-3.5039
X2.9331Y-4.315
X2.9331Y-4.5394
X2.9449Y-3.8307
X2.9488Y-3.7451
X2.9489Y-3.7868
X2.9783Y-4.189
X2.9803Y-3.0118
X2.9879Y-3.6296
X2.9882Y-3.5039
X2.9921Y-3.9094
X3.0Y-4.2402
X3.0Y-4.3386
X3.0Y-4.4646
X3.0Y-4.6142
X3.0157Y-3.8858
X3.0197Y-3.7874
X3.0236Y-3.8169
X3.0276Y-3.0118
X3.0433Y-3.9921
X3.0512Y-3.6929
X3.0551Y-3.5551
X3.0748Y-3.7598
X3.0787Y-3.0118
X3.0787Y-3.1654
X3.0945Y-3.5945
X3.0945Y-3.7165
X3.1102Y-3.9083
X3.1102Y-4.2165
X3.1142Y-4.252
X3.1142Y-4.0236
X3.1181Y-3.937
X3.1299Y-3.0118
X3.1378Y-3.9882
X3.1496Y-4.1654
X3.1535Y-3.6181
X3.1732Y-4.1417
X3.1811Y-3.0118
X3.185Y-3.6181
X3.185Y-3.6496
X3.185Y-3.6811
X3.185Y-3.7126
X3.185Y-3.7441
X3.185Y-3.7756
X3.185Y-3.8386
X3.185Y-3.8701
X3.1969Y-4.1181
X3.2165Y-3.7756
X3.2165Y-3.8071
X3.2165Y-3.8701
X3.2205Y-4.0945
X3.2283Y-3.0118
X3.2283Y-3.1654
X3.2441Y-4.0709
X3.248Y-3.6496
X3.248Y-3.6811
X3.248Y-3.7126
X3.248Y-3.7441
X3.248Y-3.8071
X3.248Y-3.8701
X3.2598Y-4.3701
X3.2598Y-4.5669
X3.2677Y-4.0472
X3.2793Y-3.0116
X3.2795Y-3.6496
X3.2795Y-3.6811
X3.2795Y-3.7441
X3.2795Y-3.7756
X3.2795Y-3.8386
X3.2913Y-4.0236
X3.2953Y-4.2244
X3.311Y-3.6811
X3.311Y-3.7441
X3.311Y-3.7756
X3.311Y-3.8386
X3.311Y-3.8701
X3.315Y-4.0
X3.3307Y-3.0118
X3.3425Y-3.6181
X3.3425Y-3.6496
X3.3425Y-3.7126
X3.3425Y-3.8071
X3.3425Y-3.8386
X3.3425Y-3.8701
X3.374Y-3.6181
X3.374Y-3.6496
X3.374Y-3.7756
X3.374Y-3.8071
X3.378Y-3.1654
X3.4055Y-3.6496
X3.4055Y-3.6811
X3.4055Y-3.7441
X3.4055Y-3.7756
X3.4055Y-3.8071
X3.4055Y-3.8386
X3.4055Y-3.9016
X3.4173Y-4.2303
X3.4272Y-3.5433
X3.4366Y-3.6811
X3.437Y-3.7126
X3.45Y-3.9435
X3.4508Y-3.4882
X3.4528Y-4.2697
X3.4843Y-3.9449
X3.4961Y-4.2165
X3.506Y-3.7608
X3.5098Y-3.9075
X3.5118Y-3.6929
X3.5276Y-4.3701
X3.5531Y-3.502
X3.5571Y-3.7126
X3.5709Y-4.4094
X3.5728Y-3.9016
X3.5787Y-3.437
X3.5866Y-3.872
X3.6238Y-3.7539
X3.626Y-3.6949
X3.6358Y-3.7244
X3.6378Y-3.8819
X3.6693Y-4.2244
X3.6807Y-3.7201
X3.6811Y-3.3425
X3.6811Y-3.374
X3.6811Y-3.437
X3.6811Y-3.4685
X3.6811Y-3.5315
X3.6811Y-3.563
X3.6811Y-3.626
X3.6811Y-3.8307
X3.6811Y-3.8622
X3.6811Y-3.9252
X3.6811Y-3.9567
X3.6811Y-4.0197
X3.6811Y-4.0512
X3.6811Y-4.1142
X3.6811Y-3.6575
X3.6811Y-4.1457
X3.7146Y-3.7205
X3.815Y-3.3425
X3.815Y-3.374
X3.815Y-3.437
X3.815Y-3.4685
X3.815Y-3.5315
X3.815Y-3.563
X3.815Y-3.626
X3.815Y-3.6575
X3.815Y-3.8307
X3.815Y-3.8622
X3.815Y-3.9252
X3.815Y-3.9567
X3.815Y-4.0197
X3.815Y-4.0512
X3.815Y-4.1142
X3.815Y-4.1457
X3.8701Y-3.3583
X3.8701Y-3.3898
X3.8701Y-3.4528
X3.8701Y-3.4843
X3.8701Y-3.5472
X3.8701Y-3.5787
X3.8701Y-3.6417
X3.8701Y-3.6732
X3.8701Y-3.8465
X3.8701Y-3.878
X3.8701Y-3.9409
X3.8701Y-3.9724
X3.8701Y-4.0354
X3.8701Y-4.0669
X3.8701Y-4.1299
X3.8701Y-4.1614
X3.9754Y-3.2431
X3.9754Y-4.2766
X3.9843Y-3.1299
X3.9843Y-4.3898
X4.0071Y-4.0401
X4.0079Y-3.3622
X4.0079Y-3.3937
X4.0079Y-3.4567
X4.0079Y-3.4882
X4.0079Y-3.5512
X4.0079Y-3.5827
X4.0079Y-3.6457
X4.0079Y-3.6772
X4.0079Y-3.8504
X4.0079Y-3.8819
X4.0079Y-3.9449
X4.0079Y-3.9764
X4.0079Y-4.0709
X4.0079Y-4.1339
X4.0079Y-4.1654
X4.0157Y-3.1299
X4.0157Y-3.187
X4.0157Y-4.3327
X4.0157Y-4.3898
X4.0472Y-3.1299
X4.0472Y-4.3898
X4.0748Y-3.187
X4.0748Y-3.3701
X4.0748Y-4.1496
X4.0748Y-4.3327
X4.0768Y-3.7323
X4.0768Y-3.7874
X4.0787Y-3.1299
X4.0787Y-4.3898
X4.1102Y-3.1299
X4.1102Y-4.3898
X4.1339Y-3.187
X4.1339Y-4.3327
X4.1417Y-3.1299
X4.1417Y-4.3898
X4.1732Y-3.1299
X4.1732Y-4.3898
X4.1742Y-3.2431
X4.1742Y-4.2766
X4.187Y-3.9882
X4.189Y-3.5315
X4.2047Y-3.1299
X4.2047Y-4.3898
X4.2087Y-3.2894
X4.2087Y-4.2303
X4.2343Y-3.685
X4.2343Y-3.8346
X4.2598Y-3.5
X4.2598Y-4.0236
X4.2657Y-3.9252
X4.2657Y-3.9547
X4.3209Y-3.7598
X4.5531Y-3.7598
X4.6142Y-3.5
X4.6142Y-3.9528
X4.6142Y-4.0197
X4.6398Y-3.685
X4.6398Y-3.8346
X4.6535Y-3.5
X4.6535Y-4.0197
X4.6791Y-3.3701
X4.6791Y-4.1496
X4.687Y-3.8425
X4.687Y-3.8819
X4.7126Y-3.5374
X4.7126Y-3.9823
X4.7362Y-3.0039
X4.7362Y-4.5157
X4.748Y-3.3031
X4.748Y-3.3425
X4.748Y-4.1772
X4.748Y-4.2165
X4.752Y-3.9193
X4.752Y-3.6378
X4.752Y-3.8425
X4.752Y-3.8819
X4.752Y-3.5984
X4.8071Y-3.3445
X4.8071Y-3.4941
X4.8071Y-4.0256
X4.8071Y-4.1752
X4.8622Y-4.2618
X4.8622Y-3.2854
X4.8858Y-3.2343
X4.8858Y-4.2087
X4.8937Y-3.4193
X4.9094Y-3.1772
X4.9094Y-3.3819
X4.9094Y-4.1378
X4.9094Y-4.3425
X4.9173Y-3.2343
X4.9173Y-4.2087
X4.937Y-3.5984
X4.9409Y-3.2835
X4.9449Y-3.9488
X4.9764Y-3.4882
X4.9764Y-3.6378
X4.9764Y-3.6772
X4.9764Y-3.8425
X4.9764Y-3.8819
X4.9764Y-4.0315
X5.0039Y-3.2047
X5.0118Y-4.1024
X5.0118Y-4.315
X5.0118Y-3.4173
X2.5945Y-4.5118
X2.5945Y-4.5433
X2.5945Y-4.311
X2.5945Y-4.3425
X2.65Y-3.6598
X2.65Y-3.7098
X2.65Y-3.7598
X2.65Y-3.8098
X2.65Y-3.8598
X2.7Y-3.6598
X2.7Y-3.7098
X2.7Y-3.7598
X2.7Y-3.8098
X2.7Y-3.8598
X2.75Y-3.6598
X2.75Y-3.7098
X2.75Y-3.7598
X2.75Y-3.8098
X2.75Y-3.8598
X2.8Y-3.6598
X2.8Y-3.7098
X2.8Y-3.7598
X2.8Y-3.8098
X2.8Y-3.8598
X2.85Y-3.6598
X2.85Y-3.7098
X2.85Y-3.7598
X2.85Y-3.8098
X2.85Y-3.8598
T2
X2.0226Y-4.5669
X2.0529Y-4.4939
X2.0529Y-4.64
X2.126Y-4.4636
X2.126Y-4.6703
X2.1991Y-4.4939
X2.1991Y-4.64
X2.2293Y-4.5669
X4.8573Y-4.5669
X4.8876Y-4.4939
X4.8876Y-4.64
X4.9606Y-4.4636
X4.9606Y-4.6703
X5.0337Y-4.4939
X5.0337Y-4.64
X5.064Y-4.5669
X2.0226Y-2.9528
X2.0529Y-2.8797
X2.0529Y-3.0258
X2.126Y-2.8494
X2.126Y-3.0561
X2.1991Y-2.8797
X2.1991Y-3.0258
X2.2293Y-2.9528
X4.8573Y-2.9528
X4.8876Y-2.8797
X4.8876Y-3.0258
X4.9606Y-2.8494
X4.9606Y-3.0561
X5.0337Y-2.8797
X5.0337Y-3.0258
X5.064Y-2.9528
T4
X4.2445Y-4.2717
X4.2945Y-4.2717
X4.3445Y-4.2717
X4.3945Y-4.2717
X4.4445Y-4.2717
X4.4945Y-4.2717
X4.5445Y-4.2717
X4.5945Y-4.2717
X4.2445Y-4.0717
X4.2945Y-4.0717
X4.3445Y-4.0717
X4.3945Y-4.0717
X4.4445Y-4.0717
X4.4945Y-4.0717
X4.5445Y-4.0717
X4.5945Y-4.0717
X4.2441Y-3.4488
X4.2941Y-3.4488
X4.3441Y-3.4488
X4.3941Y-3.4488
X4.4441Y-3.4488
X4.4941Y-3.4488
X4.5441Y-3.4488
X4.5941Y-3.4488
X4.2441Y-3.248
X4.2941Y-3.248
X4.3441Y-3.248
X4.3941Y-3.248
X4.4441Y-3.248
X4.4941Y-3.248
X4.5441Y-3.248
X4.5941Y-3.248
T5
X4.1445Y-3.6598
X4.1445Y-3.7598
X4.1445Y-3.8598
T6
X3.6445Y-2.9618
X3.6445Y-3.0618
X3.7445Y-2.9618
X3.7445Y-3.0618
X3.8445Y-2.9618
X3.8445Y-3.0618
X3.9445Y-2.9618
X3.9445Y-3.0618
X4.0445Y-2.9618
X4.0445Y-3.0618
X4.1445Y-2.9618
X4.1445Y-3.0618
X4.2445Y-2.9618
X4.2445Y-3.0618
X4.3445Y-2.9618
X4.3445Y-3.0618
X4.4445Y-2.9618
X4.4445Y-3.0618
X4.5445Y-2.9618
X4.5445Y-3.0618
X3.6445Y-4.4579
X3.6445Y-4.5579
X3.7445Y-4.4579
X3.7445Y-4.5579
X3.8445Y-4.4579
X3.8445Y-4.5579
X3.9445Y-4.4579
X3.9445Y-4.5579
X4.0445Y-4.4579
X4.0445Y-4.5579
X4.1445Y-4.4579
X4.1445Y-4.5579
X4.2445Y-4.4579
X4.2445Y-4.5579
X4.3445Y-4.4579
X4.3445Y-4.5579
X4.4445Y-4.4579
X4.4445Y-4.5579
X4.5445Y-4.4579
X4.5445Y-4.5579
T7
X3.2504Y-4.2677
X3.3504Y-4.2677
T8
X2.126Y-4.5669
X4.9606Y-4.5669
X2.126Y-2.9528
X4.9606Y-2.9528
T9
X2.2346Y-3.6476
X2.2346Y-3.8752
T3
G00X2.1028Y-3.5913
M15
G01X2.0791Y-3.5913
M16
G05
G00X2.1028Y-3.9315
M15
G01X2.0791Y-3.9315
M16
G05
G00X2.2772Y-3.5913
M15
G01X2.2339Y-3.5913
M16
G05
G00X2.2772Y-3.9315
M15
G01X2.2339Y-3.9315
M16
G05
T0
M30
